# xmcd
#
# Track frame offsets:
#	150
#	23407
#	44023
#	66816
#	86120
#	117831
#	141693
#	161888
#	197142
#	213650
#	241424
#	259246
#
# Disc length: 3816 seconds
#
# Revision: 1
# Processed by: cddbd v1.5.2PL0 Copyright (c) Steve Scherf et al.
# Submitted via: EasyCDDAExtractor 15.2.1.1
#
DISCID=ba0ee60c
DTITLE=Chris Duarte - Blues in the Afterburner
DYEAR=2011
DGENRE=Blues
TTITLE0=Another Man
TTITLE1=Make Me Feel So Right
TTITLE2=Bottle Blues
TTITLE3=Milwaukee Blues
TTITLE4=Hold Back The Tears
TTITLE5=Summers Child
TTITLE6=Searching For You
TTITLE7=Black Clouds Rolling
TTITLE8=Dontcha Drive Me Crazy
TTITLE9=Born To Race
TTITLE10=I've Been A Fool
TTITLE11=Prairie Jelly
EXTD=
EXTT0=
EXTT1=
EXTT2=
EXTT3=
EXTT4=
EXTT5=
EXTT6=
EXTT7=
EXTT8=
EXTT9=
EXTT10=
EXTT11=
PLAYORDER=
